<svg width="230" height="83" viewBox="0 0 230 83" fill="none" xmlns="http://www.w3.org/2000/svg">
<g filter="url(#filter0_d_263_356)">
<rect x="4.02319" y="4.05762" width="221.736" height="74.7426" rx="12" fill="white"/>
</g>
<rect x="21.7622" y="18.3638" width="48.8652" height="47.0612" rx="10" fill="#212B36"/>
<path d="M53.2309 42.0324C53.2185 40.0588 54.173 38.5713 56.1005 37.4746C55.0225 36.0276 53.3915 35.2318 51.2416 35.0784C49.206 34.928 46.9789 36.1897 46.1634 36.1897C45.3016 36.1897 43.3309 35.1305 41.7802 35.1305C38.5801 35.1768 35.1792 37.5209 35.1792 42.2899C35.1792 43.6992 35.4541 45.1548 36.0039 46.6538C36.7391 48.6274 39.3894 53.4631 42.154 53.3849C43.5996 53.3531 44.622 52.4242 46.5032 52.4242C48.3288 52.4242 49.274 53.3849 50.8864 53.3849C53.6757 53.3473 56.0727 48.9516 56.7708 46.9722C53.0301 45.3198 53.2309 42.1336 53.2309 42.0324ZM49.9844 33.2061C51.5505 31.464 51.4084 29.8782 51.3621 29.3081C49.9782 29.3833 48.3782 30.1907 47.4669 31.1833C46.463 32.2483 45.8731 33.565 45.9997 35.0495C47.4947 35.1566 48.8601 34.436 49.9844 33.2061Z" fill="white"/>
<path d="M96.1493 56.9801H90.9113L90.0113 59.5361H87.8693L92.3513 47.0081H94.7273L99.2093 59.5361H97.0493L96.1493 56.9801ZM95.5733 55.3061L93.5393 49.4921L91.4873 55.3061H95.5733ZM103.21 51.0761C103.558 50.6201 104.032 50.2361 104.632 49.9241C105.232 49.6121 105.91 49.4561 106.666 49.4561C107.53 49.4561 108.316 49.6721 109.024 50.1041C109.744 50.5241 110.308 51.1181 110.716 51.8861C111.124 52.6541 111.328 53.5361 111.328 54.5321C111.328 55.5281 111.124 56.4221 110.716 57.2141C110.308 57.9941 109.744 58.6061 109.024 59.0501C108.316 59.4821 107.53 59.6981 106.666 59.6981C105.91 59.6981 105.238 59.5481 104.65 59.2481C104.062 58.9361 103.582 58.5521 103.21 58.0961V64.2521H101.158V49.6181H103.21V51.0761ZM109.24 54.5321C109.24 53.8481 109.096 53.2601 108.808 52.7681C108.532 52.2641 108.16 51.8861 107.692 51.6341C107.236 51.3701 106.744 51.2381 106.216 51.2381C105.7 51.2381 105.208 51.3701 104.74 51.6341C104.284 51.8981 103.912 52.2821 103.624 52.7861C103.348 53.2901 103.21 53.8841 103.21 54.5681C103.21 55.2521 103.348 55.8521 103.624 56.3681C103.912 56.8721 104.284 57.2561 104.74 57.5201C105.208 57.7841 105.7 57.9161 106.216 57.9161C106.744 57.9161 107.236 57.7841 107.692 57.5201C108.16 57.2441 108.532 56.8481 108.808 56.3321C109.096 55.8161 109.24 55.2161 109.24 54.5321ZM115.409 51.0761C115.757 50.6201 116.231 50.2361 116.831 49.9241C117.431 49.6121 118.109 49.4561 118.865 49.4561C119.729 49.4561 120.515 49.6721 121.223 50.1041C121.943 50.5241 122.507 51.1181 122.915 51.8861C123.323 52.6541 123.527 53.5361 123.527 54.5321C123.527 55.5281 123.323 56.4221 122.915 57.2141C122.507 57.9941 121.943 58.6061 121.223 59.0501C120.515 59.4821 119.729 59.6981 118.865 59.6981C118.109 59.6981 117.437 59.5481 116.849 59.2481C116.261 58.9361 115.781 58.5521 115.409 58.0961V64.2521H113.357V49.6181H115.409V51.0761ZM121.439 54.5321C121.439 53.8481 121.295 53.2601 121.007 52.7681C120.731 52.2641 120.359 51.8861 119.891 51.6341C119.435 51.3701 118.943 51.2381 118.415 51.2381C117.899 51.2381 117.407 51.3701 116.939 51.6341C116.483 51.8981 116.111 52.2821 115.823 52.7861C115.547 53.2901 115.409 53.8841 115.409 54.5681C115.409 55.2521 115.547 55.8521 115.823 56.3681C116.111 56.8721 116.483 57.2561 116.939 57.5201C117.407 57.7841 117.899 57.9161 118.415 57.9161C118.943 57.9161 119.435 57.7841 119.891 57.5201C120.359 57.2441 120.731 56.8481 121.007 56.3321C121.295 55.8161 121.439 55.2161 121.439 54.5321ZM134.354 59.6621C133.514 59.6621 132.758 59.5181 132.086 59.2301C131.414 58.9301 130.886 58.5101 130.502 57.9701C130.118 57.4301 129.926 56.8001 129.926 56.0801H132.122C132.17 56.6201 132.38 57.0641 132.752 57.4121C133.136 57.7601 133.67 57.9341 134.354 57.9341C135.062 57.9341 135.614 57.7661 136.01 57.4301C136.406 57.0821 136.604 56.6381 136.604 56.0981C136.604 55.6781 136.478 55.3361 136.226 55.0721C135.986 54.8081 135.68 54.6041 135.308 54.4601C134.948 54.3161 134.444 54.1601 133.796 53.9921C132.98 53.7761 132.314 53.5601 131.798 53.3441C131.294 53.1161 130.862 52.7681 130.502 52.3001C130.142 51.8321 129.962 51.2081 129.962 50.4281C129.962 49.7081 130.142 49.0781 130.502 48.5381C130.862 47.9981 131.366 47.5841 132.014 47.2961C132.662 47.0081 133.412 46.8641 134.264 46.8641C135.476 46.8641 136.466 47.1701 137.234 47.7821C138.014 48.3821 138.446 49.2101 138.53 50.2661H136.262C136.226 49.8101 136.01 49.4201 135.614 49.0961C135.218 48.7721 134.696 48.6101 134.048 48.6101C133.46 48.6101 132.98 48.7601 132.608 49.0601C132.236 49.3601 132.05 49.7921 132.05 50.3561C132.05 50.7401 132.164 51.0581 132.392 51.3101C132.632 51.5501 132.932 51.7421 133.292 51.8861C133.652 52.0301 134.144 52.1861 134.768 52.3541C135.596 52.5821 136.268 52.8101 136.784 53.0381C137.312 53.2661 137.756 53.6201 138.116 54.1001C138.488 54.5681 138.674 55.1981 138.674 55.9901C138.674 56.6261 138.5 57.2261 138.152 57.7901C137.816 58.3541 137.318 58.8101 136.658 59.1581C136.01 59.4941 135.242 59.6621 134.354 59.6621ZM143.49 51.2921V56.7821C143.49 57.1541 143.574 57.4241 143.742 57.5921C143.922 57.7481 144.222 57.8261 144.642 57.8261H145.902V59.5361H144.282C143.358 59.5361 142.65 59.3201 142.158 58.8881C141.666 58.4561 141.42 57.7541 141.42 56.7821V51.2921H140.25V49.6181H141.42V47.1521H143.49V49.6181H145.902V51.2921H143.49ZM152.095 59.6981C151.159 59.6981 150.313 59.4881 149.557 59.0681C148.801 58.6361 148.207 58.0361 147.775 57.2681C147.343 56.4881 147.127 55.5881 147.127 54.5681C147.127 53.5601 147.349 52.6661 147.793 51.8861C148.237 51.1061 148.843 50.5061 149.611 50.0861C150.379 49.6661 151.237 49.4561 152.185 49.4561C153.133 49.4561 153.991 49.6661 154.759 50.0861C155.527 50.5061 156.133 51.1061 156.577 51.8861C157.021 52.6661 157.243 53.5601 157.243 54.5681C157.243 55.5761 157.015 56.4701 156.559 57.2501C156.103 58.0301 155.479 58.6361 154.687 59.0681C153.907 59.4881 153.043 59.6981 152.095 59.6981ZM152.095 57.9161C152.623 57.9161 153.115 57.7901 153.571 57.5381C154.039 57.2861 154.417 56.9081 154.705 56.4041C154.993 55.9001 155.137 55.2881 155.137 54.5681C155.137 53.8481 154.999 53.2421 154.723 52.7501C154.447 52.2461 154.081 51.8681 153.625 51.6161C153.169 51.3641 152.677 51.2381 152.149 51.2381C151.621 51.2381 151.129 51.3641 150.673 51.6161C150.229 51.8681 149.875 52.2461 149.611 52.7501C149.347 53.2421 149.215 53.8481 149.215 54.5681C149.215 55.6361 149.485 56.4641 150.025 57.0521C150.577 57.6281 151.267 57.9161 152.095 57.9161ZM161.323 51.0581C161.623 50.5541 162.019 50.1641 162.511 49.8881C163.015 49.6001 163.609 49.4561 164.293 49.4561V51.5801H163.771C162.967 51.5801 162.355 51.7841 161.935 52.1921C161.527 52.6001 161.323 53.3081 161.323 54.3161V59.5361H159.271V49.6181H161.323V51.0581ZM175.27 54.3341C175.27 54.7061 175.246 55.0421 175.198 55.3421H167.62C167.68 56.1341 167.974 56.7701 168.502 57.2501C169.03 57.7301 169.678 57.9701 170.446 57.9701C171.55 57.9701 172.33 57.5081 172.786 56.5841H175C174.7 57.4961 174.154 58.2461 173.362 58.8341C172.582 59.4101 171.61 59.6981 170.446 59.6981C169.498 59.6981 168.646 59.4881 167.89 59.0681C167.146 58.6361 166.558 58.0361 166.126 57.2681C165.706 56.4881 165.496 55.5881 165.496 54.5681C165.496 53.5481 165.7 52.6541 166.108 51.8861C166.528 51.1061 167.11 50.5061 167.854 50.0861C168.61 49.6661 169.474 49.4561 170.446 49.4561C171.382 49.4561 172.216 49.6601 172.948 50.0681C173.68 50.4761 174.25 51.0521 174.658 51.7961C175.066 52.5281 175.27 53.3741 175.27 54.3341ZM173.128 53.6861C173.116 52.9301 172.846 52.3241 172.318 51.8681C171.79 51.4121 171.136 51.1841 170.356 51.1841C169.648 51.1841 169.042 51.4121 168.538 51.8681C168.034 52.3121 167.734 52.9181 167.638 53.6861H173.128Z" fill="#212B36"/>
<path d="M90.8813 25.6654C91.7693 25.6654 92.5453 25.8374 93.2093 26.1814C93.8813 26.5174 94.3973 27.0054 94.7573 27.6454C95.1253 28.2774 95.3093 29.0174 95.3093 29.8654C95.3093 30.7134 95.1253 31.4494 94.7573 32.0734C94.3973 32.6974 93.8813 33.1774 93.2093 33.5134C92.5453 33.8414 91.7693 34.0054 90.8813 34.0054H88.1573V25.6654H90.8813ZM90.8813 32.8894C91.8573 32.8894 92.6053 32.6254 93.1253 32.0974C93.6453 31.5694 93.9053 30.8254 93.9053 29.8654C93.9053 28.8974 93.6453 28.1414 93.1253 27.5974C92.6053 27.0534 91.8573 26.7814 90.8813 26.7814H89.5253V32.8894H90.8813ZM99.5331 34.1134C98.9091 34.1134 98.3451 33.9734 97.8411 33.6934C97.3371 33.4054 96.9411 33.0054 96.6531 32.4934C96.3651 31.9734 96.2211 31.3734 96.2211 30.6934C96.2211 30.0214 96.3691 29.4254 96.6651 28.9054C96.9611 28.3854 97.3651 27.9854 97.8771 27.7054C98.3891 27.4254 98.9611 27.2854 99.5931 27.2854C100.225 27.2854 100.797 27.4254 101.309 27.7054C101.821 27.9854 102.225 28.3854 102.521 28.9054C102.817 29.4254 102.965 30.0214 102.965 30.6934C102.965 31.3654 102.813 31.9614 102.509 32.4814C102.205 33.0014 101.789 33.4054 101.261 33.6934C100.741 33.9734 100.165 34.1134 99.5331 34.1134ZM99.5331 32.9254C99.8851 32.9254 100.213 32.8414 100.517 32.6734C100.829 32.5054 101.081 32.2534 101.273 31.9174C101.465 31.5814 101.561 31.1734 101.561 30.6934C101.561 30.2134 101.469 29.8094 101.285 29.4814C101.101 29.1454 100.857 28.8934 100.553 28.7254C100.249 28.5574 99.9211 28.4734 99.5691 28.4734C99.2171 28.4734 98.8891 28.5574 98.5851 28.7254C98.2891 28.8934 98.0531 29.1454 97.8771 29.4814C97.7011 29.8094 97.6131 30.2134 97.6131 30.6934C97.6131 31.4054 97.7931 31.9574 98.1531 32.3494C98.5211 32.7334 98.9811 32.9254 99.5331 32.9254ZM113.197 27.3934L111.145 34.0054H109.705L108.373 29.1214L107.041 34.0054H105.601L103.537 27.3934H104.929L106.309 32.7094L107.713 27.3934H109.141L110.485 32.6854L111.853 27.3934H113.197ZM117.556 27.2854C118.076 27.2854 118.54 27.3934 118.948 27.6094C119.364 27.8254 119.688 28.1454 119.92 28.5694C120.152 28.9934 120.268 29.5054 120.268 30.1054V34.0054H118.912V30.3094C118.912 29.7174 118.764 29.2654 118.468 28.9534C118.172 28.6334 117.768 28.4734 117.256 28.4734C116.744 28.4734 116.336 28.6334 116.032 28.9534C115.736 29.2654 115.588 29.7174 115.588 30.3094V34.0054H114.22V27.3934H115.588V28.1494C115.812 27.8774 116.096 27.6654 116.44 27.5134C116.792 27.3614 117.164 27.2854 117.556 27.2854ZM123.381 25.1254V34.0054H122.013V25.1254H123.381ZM128.045 34.1134C127.421 34.1134 126.857 33.9734 126.353 33.6934C125.849 33.4054 125.453 33.0054 125.165 32.4934C124.877 31.9734 124.733 31.3734 124.733 30.6934C124.733 30.0214 124.881 29.4254 125.177 28.9054C125.473 28.3854 125.877 27.9854 126.389 27.7054C126.901 27.4254 127.473 27.2854 128.105 27.2854C128.737 27.2854 129.309 27.4254 129.821 27.7054C130.333 27.9854 130.737 28.3854 131.033 28.9054C131.329 29.4254 131.477 30.0214 131.477 30.6934C131.477 31.3654 131.325 31.9614 131.021 32.4814C130.717 33.0014 130.301 33.4054 129.773 33.6934C129.253 33.9734 128.677 34.1134 128.045 34.1134ZM128.045 32.9254C128.397 32.9254 128.725 32.8414 129.029 32.6734C129.341 32.5054 129.593 32.2534 129.785 31.9174C129.977 31.5814 130.073 31.1734 130.073 30.6934C130.073 30.2134 129.981 29.8094 129.797 29.4814C129.613 29.1454 129.369 28.8934 129.065 28.7254C128.761 28.5574 128.433 28.4734 128.081 28.4734C127.729 28.4734 127.401 28.5574 127.097 28.7254C126.801 28.8934 126.565 29.1454 126.389 29.4814C126.213 29.8094 126.125 30.2134 126.125 30.6934C126.125 31.4054 126.305 31.9574 126.665 32.3494C127.033 32.7334 127.493 32.9254 128.045 32.9254ZM132.373 30.6694C132.373 30.0054 132.509 29.4174 132.781 28.9054C133.061 28.3934 133.437 27.9974 133.909 27.7174C134.389 27.4294 134.917 27.2854 135.493 27.2854C136.013 27.2854 136.465 27.3894 136.849 27.5974C137.241 27.7974 137.553 28.0494 137.785 28.3534V27.3934H139.165V34.0054H137.785V33.0214C137.553 33.3334 137.237 33.5934 136.837 33.8014C136.437 34.0094 135.981 34.1134 135.469 34.1134C134.901 34.1134 134.381 33.9694 133.909 33.6814C133.437 33.3854 133.061 32.9774 132.781 32.4574C132.509 31.9294 132.373 31.3334 132.373 30.6694ZM137.785 30.6934C137.785 30.2374 137.689 29.8414 137.497 29.5054C137.313 29.1694 137.069 28.9134 136.765 28.7374C136.461 28.5614 136.133 28.4734 135.781 28.4734C135.429 28.4734 135.101 28.5614 134.797 28.7374C134.493 28.9054 134.245 29.1574 134.053 29.4934C133.869 29.8214 133.777 30.2134 133.777 30.6694C133.777 31.1254 133.869 31.5254 134.053 31.8694C134.245 32.2134 134.493 32.4774 134.797 32.6614C135.109 32.8374 135.437 32.9254 135.781 32.9254C136.133 32.9254 136.461 32.8374 136.765 32.6614C137.069 32.4854 137.313 32.2294 137.497 31.8934C137.689 31.5494 137.785 31.1494 137.785 30.6934ZM140.506 30.6694C140.506 30.0054 140.642 29.4174 140.914 28.9054C141.194 28.3934 141.57 27.9974 142.042 27.7174C142.522 27.4294 143.054 27.2854 143.638 27.2854C144.07 27.2854 144.494 27.3814 144.91 27.5734C145.334 27.7574 145.67 28.0054 145.918 28.3174V25.1254H147.298V34.0054H145.918V33.0094C145.694 33.3294 145.382 33.5934 144.982 33.8014C144.59 34.0094 144.138 34.1134 143.626 34.1134C143.05 34.1134 142.522 33.9694 142.042 33.6814C141.57 33.3854 141.194 32.9774 140.914 32.4574C140.642 31.9294 140.506 31.3334 140.506 30.6694ZM145.918 30.6934C145.918 30.2374 145.822 29.8414 145.63 29.5054C145.446 29.1694 145.202 28.9134 144.898 28.7374C144.594 28.5614 144.266 28.4734 143.914 28.4734C143.562 28.4734 143.234 28.5614 142.93 28.7374C142.626 28.9054 142.378 29.1574 142.186 29.4934C142.002 29.8214 141.91 30.2134 141.91 30.6694C141.91 31.1254 142.002 31.5254 142.186 31.8694C142.378 32.2134 142.626 32.4774 142.93 32.6614C143.242 32.8374 143.57 32.9254 143.914 32.9254C144.266 32.9254 144.594 32.8374 144.898 32.6614C145.202 32.4854 145.446 32.2294 145.63 31.8934C145.822 31.5494 145.918 31.1494 145.918 30.6934Z" fill="#212B36"/>
<defs>
<filter id="filter0_d_263_356" x="0.0231934" y="0.0576172" width="229.736" height="82.7427" filterUnits="userSpaceOnUse" color-interpolation-filters="sRGB">
<feFlood flood-opacity="0" result="BackgroundImageFix"/>
<feColorMatrix in="SourceAlpha" type="matrix" values="0 0 0 0 0 0 0 0 0 0 0 0 0 0 0 0 0 0 127 0" result="hardAlpha"/>
<feOffset/>
<feGaussianBlur stdDeviation="2"/>
<feColorMatrix type="matrix" values="0 0 0 0 0 0 0 0 0 0 0 0 0 0 0 0 0 0 0.1 0"/>
<feBlend mode="normal" in2="BackgroundImageFix" result="effect1_dropShadow_263_356"/>
<feBlend mode="normal" in="SourceGraphic" in2="effect1_dropShadow_263_356" result="shape"/>
</filter>
</defs>
</svg>
