<svg width="231" height="84" viewBox="0 0 231 84" fill="none" xmlns="http://www.w3.org/2000/svg">
<g filter="url(#filter0_d_9_125)">
<rect x="4.49805" y="4.27075" width="221.736" height="74.7426" rx="12" fill="white"/>
</g>
<rect x="22.2368" y="18.5769" width="48.8652" height="47.0612" rx="10" fill="#212B36"/>
<path d="M50.3219 31.0226L51.5002 28.8849C51.5153 28.8575 51.5248 28.8274 51.5283 28.7963C51.5318 28.7652 51.5292 28.7337 51.5206 28.7036C51.512 28.6735 51.4976 28.6454 51.4782 28.6209C51.4588 28.5965 51.4348 28.5761 51.4075 28.5609C51.3803 28.5458 51.3504 28.5361 51.3194 28.5326C51.2885 28.5291 51.2572 28.5317 51.2273 28.5404C51.1973 28.5491 51.1694 28.5635 51.1451 28.5831C51.1207 28.6026 51.1004 28.6267 51.0854 28.6541L49.8948 30.814C48.8784 30.3659 47.7807 30.1346 46.671 30.1346C45.5613 30.1346 44.4636 30.3659 43.4473 30.814L42.2567 28.6541C42.2262 28.5984 42.1751 28.5572 42.1144 28.5395C42.0538 28.5218 41.9886 28.5291 41.9333 28.5597C41.8779 28.5903 41.8369 28.6417 41.8193 28.7027C41.8017 28.7637 41.8089 28.8292 41.8394 28.8849L43.0177 31.0226C41.8965 31.5786 40.9493 32.4343 40.2799 33.4959C39.6104 34.5575 39.2446 35.784 39.2225 37.0408H54.1195C54.0972 35.7837 53.731 34.5571 53.0611 33.4955C52.3912 32.4339 51.4435 31.5783 50.3219 31.0226ZM43.2337 34.2995C43.1106 34.2995 42.9902 34.2628 42.8878 34.194C42.7855 34.1252 42.7057 34.0274 42.6586 33.913C42.6116 33.7985 42.5993 33.6727 42.6234 33.5512C42.6476 33.4298 42.7069 33.3183 42.7941 33.2309C42.8812 33.1434 42.9922 33.0839 43.113 33.0599C43.2338 33.0359 43.359 33.0485 43.4727 33.096C43.5864 33.1436 43.6835 33.224 43.7517 33.327C43.8199 33.4301 43.8562 33.5512 43.856 33.675C43.8556 33.8408 43.7899 33.9996 43.6733 34.1167C43.5566 34.2338 43.3985 34.2995 43.2337 34.2995ZM50.1096 34.2995C49.9864 34.2995 49.8661 34.2628 49.7637 34.194C49.6614 34.1252 49.5816 34.0274 49.5345 33.913C49.4875 33.7985 49.4752 33.6727 49.4993 33.5512C49.5234 33.4298 49.5828 33.3183 49.67 33.2309C49.7571 33.1434 49.8681 33.0839 49.9889 33.0599C50.1097 33.0359 50.2349 33.0485 50.3486 33.096C50.4622 33.1436 50.5594 33.224 50.6276 33.327C50.6958 33.4301 50.7321 33.5512 50.7319 33.675C50.7315 33.8408 50.6658 33.9996 50.5492 34.1167C50.4325 34.2338 50.2744 34.2995 50.1096 34.2995ZM39.2201 48.4897C39.2198 48.728 39.2662 48.964 39.3568 49.1842C39.4474 49.4044 39.5803 49.6045 39.7479 49.7729C39.9155 49.9414 40.1146 50.0749 40.3336 50.1658C40.5527 50.2567 40.7874 50.3033 41.0244 50.3028H42.2186V54.0056C42.2186 54.4509 42.3946 54.878 42.7077 55.1929C43.0209 55.5078 43.4456 55.6848 43.8885 55.6848C44.3314 55.6848 44.7561 55.5078 45.0693 55.1929C45.3824 54.878 45.5584 54.4509 45.5584 54.0056V50.3028H47.7849V54.0056C47.7849 54.4507 47.9607 54.8777 48.2738 55.1925C48.5868 55.5073 49.0114 55.6841 49.4541 55.6841C49.8969 55.6841 50.3214 55.5073 50.6345 55.1925C50.9475 54.8777 51.1234 54.4507 51.1234 54.0056V50.3028H52.3189C52.5555 50.303 52.7899 50.2562 53.0086 50.1652C53.2273 50.0742 53.426 49.9408 53.5933 49.7725C53.7607 49.6042 53.8934 49.4044 53.9839 49.1845C54.0744 48.9646 54.1209 48.7289 54.1207 48.4909V37.6333H39.2201V48.4897ZM36.9285 37.3444C36.4858 37.3451 36.0614 37.5223 35.7485 37.8372C35.4355 38.1522 35.2596 38.579 35.2593 39.0242V46.0212C35.2593 46.2416 35.3025 46.4599 35.3863 46.6636C35.4702 46.8672 35.5932 47.0523 35.7482 47.2081C35.9032 47.364 36.0872 47.4877 36.2897 47.572C36.4923 47.6564 36.7093 47.6998 36.9285 47.6998C37.1477 47.6998 37.3648 47.6564 37.5673 47.572C37.7699 47.4877 37.9539 47.364 38.1089 47.2081C38.2639 47.0523 38.3868 46.8672 38.4707 46.6636C38.5546 46.4599 38.5978 46.2416 38.5978 46.0212V39.0242C38.5972 38.5793 38.4211 38.1527 38.1082 37.838C37.7953 37.5234 37.3711 37.3463 36.9285 37.3457V37.3444ZM56.4098 37.3444C55.9671 37.3451 55.5427 37.5223 55.2297 37.8372C54.9168 38.1522 54.7409 38.579 54.7405 39.0242V46.0212C54.7405 46.2416 54.7837 46.4599 54.8676 46.6636C54.9515 46.8672 55.0745 47.0523 55.2295 47.2081C55.3845 47.364 55.5685 47.4877 55.771 47.572C55.9735 47.6564 56.1906 47.6998 56.4098 47.6998C56.629 47.6998 56.8461 47.6564 57.0486 47.572C57.2511 47.4877 57.4351 47.364 57.5901 47.2081C57.7452 47.0523 57.8681 46.8672 57.952 46.6636C58.0359 46.4599 58.0791 46.2416 58.0791 46.0212V39.0242C58.0784 38.5793 57.9023 38.1527 57.5894 37.838C57.2765 37.5234 56.8523 37.3463 56.4098 37.3457V37.3444Z" fill="white"/>
<path d="M96.6244 57.193H91.3864L90.4864 59.749H88.3444L92.8264 47.221H95.2024L99.6844 59.749H97.5244L96.6244 57.193ZM96.0484 55.519L94.0144 49.705L91.9624 55.519H96.0484ZM106.637 49.669C107.417 49.669 108.113 49.831 108.725 50.155C109.349 50.479 109.835 50.959 110.183 51.595C110.531 52.231 110.705 52.999 110.705 53.899V59.749H108.671V54.205C108.671 53.317 108.449 52.639 108.005 52.171C107.561 51.691 106.955 51.451 106.187 51.451C105.419 51.451 104.807 51.691 104.351 52.171C103.907 52.639 103.685 53.317 103.685 54.205V59.749H101.633V49.831H103.685V50.965C104.021 50.557 104.447 50.239 104.963 50.011C105.491 49.783 106.049 49.669 106.637 49.669ZM112.639 54.745C112.639 53.749 112.843 52.867 113.251 52.099C113.671 51.331 114.235 50.737 114.943 50.317C115.663 49.885 116.461 49.669 117.337 49.669C117.985 49.669 118.621 49.813 119.245 50.101C119.881 50.377 120.385 50.749 120.757 51.217V46.429H122.827V59.749H120.757V58.255C120.421 58.735 119.953 59.131 119.353 59.443C118.765 59.755 118.087 59.911 117.319 59.911C116.455 59.911 115.663 59.695 114.943 59.263C114.235 58.819 113.671 58.207 113.251 57.427C112.843 56.635 112.639 55.741 112.639 54.745ZM120.757 54.781C120.757 54.097 120.613 53.503 120.325 52.999C120.049 52.495 119.683 52.111 119.227 51.847C118.771 51.583 118.279 51.451 117.751 51.451C117.223 51.451 116.731 51.583 116.275 51.847C115.819 52.099 115.447 52.477 115.159 52.981C114.883 53.473 114.745 54.061 114.745 54.745C114.745 55.429 114.883 56.029 115.159 56.545C115.447 57.061 115.819 57.457 116.275 57.733C116.743 57.997 117.235 58.129 117.751 58.129C118.279 58.129 118.771 57.997 119.227 57.733C119.683 57.469 120.049 57.085 120.325 56.581C120.613 56.065 120.757 55.465 120.757 54.781ZM127.574 51.271C127.874 50.767 128.27 50.377 128.762 50.101C129.266 49.813 129.86 49.669 130.544 49.669V51.793H130.022C129.218 51.793 128.606 51.997 128.186 52.405C127.778 52.813 127.574 53.521 127.574 54.529V59.749H125.522V49.831H127.574V51.271ZM136.732 59.911C135.796 59.911 134.95 59.701 134.194 59.281C133.438 58.849 132.844 58.249 132.412 57.481C131.98 56.701 131.764 55.801 131.764 54.781C131.764 53.773 131.986 52.879 132.43 52.099C132.874 51.319 133.48 50.719 134.248 50.299C135.016 49.879 135.874 49.669 136.822 49.669C137.77 49.669 138.628 49.879 139.396 50.299C140.164 50.719 140.77 51.319 141.214 52.099C141.658 52.879 141.88 53.773 141.88 54.781C141.88 55.789 141.652 56.683 141.196 57.463C140.74 58.243 140.116 58.849 139.324 59.281C138.544 59.701 137.68 59.911 136.732 59.911ZM136.732 58.129C137.26 58.129 137.752 58.003 138.208 57.751C138.676 57.499 139.054 57.121 139.342 56.617C139.63 56.113 139.774 55.501 139.774 54.781C139.774 54.061 139.636 53.455 139.36 52.963C139.084 52.459 138.718 52.081 138.262 51.829C137.806 51.577 137.314 51.451 136.786 51.451C136.258 51.451 135.766 51.577 135.31 51.829C134.866 52.081 134.512 52.459 134.248 52.963C133.984 53.455 133.852 54.061 133.852 54.781C133.852 55.849 134.122 56.677 134.662 57.265C135.214 57.841 135.904 58.129 136.732 58.129ZM144.953 48.517C144.581 48.517 144.269 48.391 144.017 48.139C143.765 47.887 143.639 47.575 143.639 47.203C143.639 46.831 143.765 46.519 144.017 46.267C144.269 46.015 144.581 45.889 144.953 45.889C145.313 45.889 145.619 46.015 145.871 46.267C146.123 46.519 146.249 46.831 146.249 47.203C146.249 47.575 146.123 47.887 145.871 48.139C145.619 48.391 145.313 48.517 144.953 48.517ZM145.961 49.831V59.749H143.909V49.831H145.961ZM147.971 54.745C147.971 53.749 148.175 52.867 148.583 52.099C149.003 51.331 149.567 50.737 150.275 50.317C150.995 49.885 151.793 49.669 152.669 49.669C153.317 49.669 153.953 49.813 154.577 50.101C155.213 50.377 155.717 50.749 156.089 51.217V46.429H158.159V59.749H156.089V58.255C155.753 58.735 155.285 59.131 154.685 59.443C154.097 59.755 153.419 59.911 152.651 59.911C151.787 59.911 150.995 59.695 150.275 59.263C149.567 58.819 149.003 58.207 148.583 57.427C148.175 56.635 147.971 55.741 147.971 54.745ZM156.089 54.781C156.089 54.097 155.945 53.503 155.657 52.999C155.381 52.495 155.015 52.111 154.559 51.847C154.103 51.583 153.611 51.451 153.083 51.451C152.555 51.451 152.063 51.583 151.607 51.847C151.151 52.099 150.779 52.477 150.491 52.981C150.215 53.473 150.077 54.061 150.077 54.745C150.077 55.429 150.215 56.029 150.491 56.545C150.779 57.061 151.151 57.457 151.607 57.733C152.075 57.997 152.567 58.129 153.083 58.129C153.611 58.129 154.103 57.997 154.559 57.733C155.015 57.469 155.381 57.085 155.657 56.581C155.945 56.065 156.089 55.465 156.089 54.781ZM173.072 57.193H167.834L166.934 59.749H164.792L169.274 47.221H171.65L176.132 59.749H173.972L173.072 57.193ZM172.496 55.519L170.462 49.705L168.41 55.519H172.496ZM180.132 51.289C180.48 50.833 180.954 50.449 181.554 50.137C182.154 49.825 182.832 49.669 183.588 49.669C184.452 49.669 185.238 49.885 185.946 50.317C186.666 50.737 187.23 51.331 187.638 52.099C188.046 52.867 188.25 53.749 188.25 54.745C188.25 55.741 188.046 56.635 187.638 57.427C187.23 58.207 186.666 58.819 185.946 59.263C185.238 59.695 184.452 59.911 183.588 59.911C182.832 59.911 182.16 59.761 181.572 59.461C180.984 59.149 180.504 58.765 180.132 58.309V64.465H178.08V49.831H180.132V51.289ZM186.162 54.745C186.162 54.061 186.018 53.473 185.73 52.981C185.454 52.477 185.082 52.099 184.614 51.847C184.158 51.583 183.666 51.451 183.138 51.451C182.622 51.451 182.13 51.583 181.662 51.847C181.206 52.111 180.834 52.495 180.546 52.999C180.27 53.503 180.132 54.097 180.132 54.781C180.132 55.465 180.27 56.065 180.546 56.581C180.834 57.085 181.206 57.469 181.662 57.733C182.13 57.997 182.622 58.129 183.138 58.129C183.666 58.129 184.158 57.997 184.614 57.733C185.082 57.457 185.454 57.061 185.73 56.545C186.018 56.029 186.162 55.429 186.162 54.745ZM192.332 51.289C192.68 50.833 193.154 50.449 193.754 50.137C194.354 49.825 195.032 49.669 195.788 49.669C196.652 49.669 197.438 49.885 198.146 50.317C198.866 50.737 199.43 51.331 199.838 52.099C200.246 52.867 200.45 53.749 200.45 54.745C200.45 55.741 200.246 56.635 199.838 57.427C199.43 58.207 198.866 58.819 198.146 59.263C197.438 59.695 196.652 59.911 195.788 59.911C195.032 59.911 194.36 59.761 193.772 59.461C193.184 59.149 192.704 58.765 192.332 58.309V64.465H190.28V49.831H192.332V51.289ZM198.362 54.745C198.362 54.061 198.218 53.473 197.93 52.981C197.654 52.477 197.282 52.099 196.814 51.847C196.358 51.583 195.866 51.451 195.338 51.451C194.822 51.451 194.33 51.583 193.862 51.847C193.406 52.111 193.034 52.495 192.746 52.999C192.47 53.503 192.332 54.097 192.332 54.781C192.332 55.465 192.47 56.065 192.746 56.581C193.034 57.085 193.406 57.469 193.862 57.733C194.33 57.997 194.822 58.129 195.338 58.129C195.866 58.129 196.358 57.997 196.814 57.733C197.282 57.457 197.654 57.061 197.93 56.545C198.218 56.029 198.362 55.429 198.362 54.745Z" fill="#212B36"/>
<path d="M91.3564 25.8785C92.2444 25.8785 93.0204 26.0505 93.6844 26.3945C94.3564 26.7305 94.8724 27.2185 95.2324 27.8585C95.6004 28.4905 95.7844 29.2305 95.7844 30.0785C95.7844 30.9265 95.6004 31.6625 95.2324 32.2865C94.8724 32.9105 94.3564 33.3905 93.6844 33.7265C93.0204 34.0545 92.2444 34.2185 91.3564 34.2185H88.6324V25.8785H91.3564ZM91.3564 33.1025C92.3324 33.1025 93.0804 32.8385 93.6004 32.3105C94.1204 31.7825 94.3804 31.0385 94.3804 30.0785C94.3804 29.1105 94.1204 28.3545 93.6004 27.8105C93.0804 27.2665 92.3324 26.9945 91.3564 26.9945H90.0004V33.1025H91.3564ZM100.008 34.3265C99.3842 34.3265 98.8202 34.1865 98.3162 33.9065C97.8122 33.6185 97.4162 33.2185 97.1282 32.7065C96.8402 32.1865 96.6962 31.5865 96.6962 30.9065C96.6962 30.2345 96.8442 29.6385 97.1402 29.1185C97.4362 28.5985 97.8402 28.1985 98.3522 27.9185C98.8642 27.6385 99.4362 27.4985 100.068 27.4985C100.7 27.4985 101.272 27.6385 101.784 27.9185C102.296 28.1985 102.7 28.5985 102.996 29.1185C103.292 29.6385 103.44 30.2345 103.44 30.9065C103.44 31.5785 103.288 32.1745 102.984 32.6945C102.68 33.2145 102.264 33.6185 101.736 33.9065C101.216 34.1865 100.64 34.3265 100.008 34.3265ZM100.008 33.1385C100.36 33.1385 100.688 33.0545 100.992 32.8865C101.304 32.7185 101.556 32.4665 101.748 32.1305C101.94 31.7945 102.036 31.3865 102.036 30.9065C102.036 30.4265 101.944 30.0225 101.76 29.6945C101.576 29.3585 101.332 29.1065 101.028 28.9385C100.724 28.7705 100.396 28.6865 100.044 28.6865C99.6922 28.6865 99.3642 28.7705 99.0602 28.9385C98.7642 29.1065 98.5282 29.3585 98.3522 29.6945C98.1762 30.0225 98.0882 30.4265 98.0882 30.9065C98.0882 31.6185 98.2682 32.1705 98.6282 32.5625C98.9962 32.9465 99.4562 33.1385 100.008 33.1385ZM113.673 27.6065L111.621 34.2185H110.181L108.849 29.3345L107.517 34.2185H106.077L104.013 27.6065H105.405L106.785 32.9225L108.189 27.6065H109.617L110.961 32.8985L112.329 27.6065H113.673ZM118.031 27.4985C118.551 27.4985 119.015 27.6065 119.423 27.8225C119.839 28.0385 120.163 28.3585 120.395 28.7825C120.627 29.2065 120.743 29.7185 120.743 30.3185V34.2185H119.387V30.5225C119.387 29.9305 119.239 29.4785 118.943 29.1665C118.647 28.8465 118.243 28.6865 117.731 28.6865C117.219 28.6865 116.811 28.8465 116.507 29.1665C116.211 29.4785 116.063 29.9305 116.063 30.5225V34.2185H114.695V27.6065H116.063V28.3625C116.287 28.0905 116.571 27.8785 116.915 27.7265C117.267 27.5745 117.639 27.4985 118.031 27.4985ZM123.856 25.3385V34.2185H122.488V25.3385H123.856ZM128.52 34.3265C127.896 34.3265 127.332 34.1865 126.828 33.9065C126.324 33.6185 125.928 33.2185 125.64 32.7065C125.352 32.1865 125.208 31.5865 125.208 30.9065C125.208 30.2345 125.356 29.6385 125.652 29.1185C125.948 28.5985 126.352 28.1985 126.864 27.9185C127.376 27.6385 127.948 27.4985 128.58 27.4985C129.212 27.4985 129.784 27.6385 130.296 27.9185C130.808 28.1985 131.212 28.5985 131.508 29.1185C131.804 29.6385 131.952 30.2345 131.952 30.9065C131.952 31.5785 131.8 32.1745 131.496 32.6945C131.192 33.2145 130.776 33.6185 130.248 33.9065C129.728 34.1865 129.152 34.3265 128.52 34.3265ZM128.52 33.1385C128.872 33.1385 129.2 33.0545 129.504 32.8865C129.816 32.7185 130.068 32.4665 130.26 32.1305C130.452 31.7945 130.548 31.3865 130.548 30.9065C130.548 30.4265 130.456 30.0225 130.272 29.6945C130.088 29.3585 129.844 29.1065 129.54 28.9385C129.236 28.7705 128.908 28.6865 128.556 28.6865C128.204 28.6865 127.876 28.7705 127.572 28.9385C127.276 29.1065 127.04 29.3585 126.864 29.6945C126.688 30.0225 126.6 30.4265 126.6 30.9065C126.6 31.6185 126.78 32.1705 127.14 32.5625C127.508 32.9465 127.968 33.1385 128.52 33.1385ZM132.848 30.8825C132.848 30.2185 132.984 29.6305 133.256 29.1185C133.536 28.6065 133.912 28.2105 134.384 27.9305C134.864 27.6425 135.392 27.4985 135.968 27.4985C136.488 27.4985 136.94 27.6025 137.324 27.8105C137.716 28.0105 138.028 28.2625 138.26 28.5665V27.6065H139.64V34.2185H138.26V33.2345C138.028 33.5465 137.712 33.8065 137.312 34.0145C136.912 34.2225 136.456 34.3265 135.944 34.3265C135.376 34.3265 134.856 34.1825 134.384 33.8945C133.912 33.5985 133.536 33.1905 133.256 32.6705C132.984 32.1425 132.848 31.5465 132.848 30.8825ZM138.26 30.9065C138.26 30.4505 138.164 30.0545 137.972 29.7185C137.788 29.3825 137.544 29.1265 137.24 28.9505C136.936 28.7745 136.608 28.6865 136.256 28.6865C135.904 28.6865 135.576 28.7745 135.272 28.9505C134.968 29.1185 134.72 29.3705 134.528 29.7065C134.344 30.0345 134.252 30.4265 134.252 30.8825C134.252 31.3385 134.344 31.7385 134.528 32.0825C134.72 32.4265 134.968 32.6905 135.272 32.8745C135.584 33.0505 135.912 33.1385 136.256 33.1385C136.608 33.1385 136.936 33.0505 137.24 32.8745C137.544 32.6985 137.788 32.4425 137.972 32.1065C138.164 31.7625 138.26 31.3625 138.26 30.9065ZM140.981 30.8825C140.981 30.2185 141.117 29.6305 141.389 29.1185C141.669 28.6065 142.045 28.2105 142.517 27.9305C142.997 27.6425 143.529 27.4985 144.113 27.4985C144.545 27.4985 144.969 27.5945 145.385 27.7865C145.809 27.9705 146.145 28.2185 146.393 28.5305V25.3385H147.773V34.2185H146.393V33.2225C146.169 33.5425 145.857 33.8065 145.457 34.0145C145.065 34.2225 144.613 34.3265 144.101 34.3265C143.525 34.3265 142.997 34.1825 142.517 33.8945C142.045 33.5985 141.669 33.1905 141.389 32.6705C141.117 32.1425 140.981 31.5465 140.981 30.8825ZM146.393 30.9065C146.393 30.4505 146.297 30.0545 146.105 29.7185C145.921 29.3825 145.677 29.1265 145.373 28.9505C145.069 28.7745 144.741 28.6865 144.389 28.6865C144.037 28.6865 143.709 28.7745 143.405 28.9505C143.101 29.1185 142.853 29.3705 142.661 29.7065C142.477 30.0345 142.385 30.4265 142.385 30.8825C142.385 31.3385 142.477 31.7385 142.661 32.0825C142.853 32.4265 143.101 32.6905 143.405 32.8745C143.717 33.0505 144.045 33.1385 144.389 33.1385C144.741 33.1385 145.069 33.0505 145.373 32.8745C145.677 32.6985 145.921 32.4425 146.105 32.1065C146.297 31.7625 146.393 31.3625 146.393 30.9065Z" fill="#212B36"/>
<defs>
<filter id="filter0_d_9_125" x="0.498047" y="0.270752" width="229.736" height="82.7427" filterUnits="userSpaceOnUse" color-interpolation-filters="sRGB">
<feFlood flood-opacity="0" result="BackgroundImageFix"/>
<feColorMatrix in="SourceAlpha" type="matrix" values="0 0 0 0 0 0 0 0 0 0 0 0 0 0 0 0 0 0 127 0" result="hardAlpha"/>
<feOffset/>
<feGaussianBlur stdDeviation="2"/>
<feColorMatrix type="matrix" values="0 0 0 0 0 0 0 0 0 0 0 0 0 0 0 0 0 0 0.1 0"/>
<feBlend mode="normal" in2="BackgroundImageFix" result="effect1_dropShadow_9_125"/>
<feBlend mode="normal" in="SourceGraphic" in2="effect1_dropShadow_9_125" result="shape"/>
</filter>
</defs>
</svg>
