<svg width="1920" height="539" viewBox="0 0 1920 539" fill="none" xmlns="http://www.w3.org/2000/svg">
<rect y="0.443359" width="1920" height="537.417" fill="#1E1E1E"/>
<mask id="mask0_727_384" style="mask-type:alpha" maskUnits="userSpaceOnUse" x="-10" y="2" width="1920" height="538">
<rect x="-10" y="2" width="1920" height="537.417" fill="#1E1E1E"/>
</mask>
<g mask="url(#mask0_727_384)">
<ellipse cx="32.2033" cy="7.20367" rx="280.089" ry="294.369" transform="rotate(-45 32.2033 7.20367)" fill="url(#paint0_linear_727_384)"/>
<ellipse cx="1969.75" cy="225.745" rx="199.017" ry="199.017" transform="rotate(-75 1969.75 225.745)" fill="url(#paint1_linear_727_384)"/>
<path d="M1650.46 36.0556C1651.49 36.0556 1652.33 36.8917 1652.33 37.9232C1652.33 38.9547 1651.49 39.7908 1650.46 39.7908C1649.43 39.7908 1648.59 38.9547 1648.59 37.9232C1648.59 36.8917 1649.43 36.0556 1650.46 36.0556Z" fill="white" fill-opacity="0.3"/>
<path d="M1650.46 19.6211C1651.49 19.6211 1652.33 20.4572 1652.33 21.4887C1652.33 22.5202 1651.49 23.3563 1650.46 23.3563C1649.43 23.3563 1648.59 22.5202 1648.59 21.4887C1648.59 20.4572 1649.43 19.6211 1650.46 19.6211Z" fill="white" fill-opacity="0.3"/>
<path d="M1650.46 3.1859C1651.49 3.1859 1652.33 4.02206 1652.33 5.05353C1652.33 6.08499 1651.49 6.92116 1650.46 6.92116C1649.43 6.92116 1648.59 6.08499 1648.59 5.05353C1648.59 4.02206 1649.43 3.1859 1650.46 3.1859Z" fill="white" fill-opacity="0.3"/>
<path d="M1666.43 36.0562C1667.46 36.0562 1668.29 36.8924 1668.29 37.9239C1668.29 38.9553 1667.46 39.7915 1666.43 39.7915C1665.4 39.7915 1664.56 38.9553 1664.56 37.9239C1664.56 36.8924 1665.4 36.0562 1666.43 36.0562Z" fill="white" fill-opacity="0.3"/>
<path d="M1682.86 36.0562C1683.89 36.0562 1684.72 36.8924 1684.72 37.9239C1684.72 38.9553 1683.89 39.7915 1682.86 39.7915C1681.82 39.7915 1680.99 38.9553 1680.99 37.9239C1680.99 36.8924 1681.82 36.0562 1682.86 36.0562Z" fill="white" fill-opacity="0.3"/>
<path d="M1699.28 36.0562C1700.31 36.0562 1701.15 36.8924 1701.15 37.9239C1701.15 38.9553 1700.31 39.7915 1699.28 39.7915C1698.25 39.7915 1697.42 38.9553 1697.42 37.9239C1697.42 36.8924 1698.25 36.0562 1699.28 36.0562Z" fill="white" fill-opacity="0.3"/>
<path d="M1666.43 19.6211C1667.46 19.6211 1668.29 20.4572 1668.29 21.4887C1668.29 22.5202 1667.46 23.3563 1666.43 23.3563C1665.4 23.3563 1664.56 22.5202 1664.56 21.4887C1664.56 20.4572 1665.4 19.6211 1666.43 19.6211Z" fill="white" fill-opacity="0.3"/>
<path d="M1682.86 19.6211C1683.89 19.6211 1684.72 20.4572 1684.72 21.4887C1684.72 22.5202 1683.89 23.3563 1682.86 23.3563C1681.82 23.3563 1680.99 22.5202 1680.99 21.4887C1680.99 20.4572 1681.82 19.6211 1682.86 19.6211Z" fill="white" fill-opacity="0.3"/>
<path d="M1699.28 19.6211C1700.31 19.6211 1701.15 20.4572 1701.15 21.4887C1701.15 22.5202 1700.31 23.3563 1699.28 23.3563C1698.25 23.3563 1697.42 22.5202 1697.42 21.4887C1697.42 20.4572 1698.25 19.6211 1699.28 19.6211Z" fill="white" fill-opacity="0.3"/>
<path d="M1666.43 3.18556C1667.46 3.18556 1668.29 4.02174 1668.29 5.05321C1668.29 6.08467 1667.46 6.92084 1666.43 6.92084C1665.4 6.92084 1664.56 6.08467 1664.56 5.05321C1664.56 4.02174 1665.4 3.18556 1666.43 3.18556Z" fill="white" fill-opacity="0.3"/>
<path d="M1682.86 3.18555C1683.89 3.18555 1684.72 4.02174 1684.72 5.05321C1684.72 6.08467 1683.89 6.92084 1682.86 6.92084C1681.82 6.92084 1680.99 6.08467 1680.99 5.05321C1680.99 4.02174 1681.82 3.18555 1682.86 3.18555Z" fill="white" fill-opacity="0.3"/>
<path d="M1699.28 3.18555C1700.31 3.18555 1701.15 4.02174 1701.15 5.05321C1701.15 6.08467 1700.31 6.92084 1699.28 6.92084C1698.25 6.92084 1697.42 6.08467 1697.42 5.05321C1697.42 4.02174 1698.25 3.18555 1699.28 3.18555Z" fill="white" fill-opacity="0.3"/>
<path d="M1650.46 85.0632C1651.49 85.0632 1652.33 85.8993 1652.33 86.9308C1652.33 87.9623 1651.49 88.7984 1650.46 88.7984C1649.43 88.7984 1648.59 87.9623 1648.59 86.9308C1648.59 85.8993 1649.43 85.0632 1650.46 85.0632Z" fill="white" fill-opacity="0.3"/>
<path d="M1650.46 68.628C1651.49 68.628 1652.33 69.4642 1652.33 70.4956C1652.33 71.5271 1651.49 72.3633 1650.46 72.3633C1649.43 72.3633 1648.59 71.5271 1648.59 70.4956C1648.59 69.4642 1649.43 68.628 1650.46 68.628Z" fill="white" fill-opacity="0.3"/>
<path d="M1650.46 101.125C1651.49 101.125 1652.33 101.961 1652.33 102.993C1652.33 104.024 1651.49 104.861 1650.46 104.861C1649.43 104.861 1648.59 104.024 1648.59 102.993C1648.59 101.961 1649.43 101.125 1650.46 101.125Z" fill="white" fill-opacity="0.3"/>
<path d="M1650.46 52.1931C1651.49 52.1931 1652.33 53.0293 1652.33 54.0608C1652.33 55.0923 1651.49 55.9284 1650.46 55.9284C1649.43 55.9284 1648.59 55.0923 1648.59 54.0608C1648.59 53.0293 1649.43 52.1931 1650.46 52.1931Z" fill="white" fill-opacity="0.3"/>
<path d="M1666.43 85.0635C1667.46 85.0635 1668.29 85.8997 1668.29 86.9311C1668.29 87.9626 1667.46 88.7988 1666.43 88.7988C1665.4 88.7988 1664.56 87.9626 1664.56 86.9311C1664.56 85.8997 1665.4 85.0635 1666.43 85.0635Z" fill="white" fill-opacity="0.3"/>
<path d="M1682.86 85.0635C1683.89 85.0635 1684.72 85.8997 1684.72 86.9311C1684.72 87.9626 1683.89 88.7988 1682.86 88.7988C1681.82 88.7988 1680.99 87.9626 1680.99 86.9311C1680.99 85.8997 1681.82 85.0635 1682.86 85.0635Z" fill="white" fill-opacity="0.3"/>
<path d="M1699.28 85.0635C1700.31 85.0635 1701.15 85.8996 1701.15 86.9311C1701.15 87.9626 1700.31 88.7988 1699.28 88.7988C1698.25 88.7988 1697.42 87.9626 1697.42 86.9311C1697.42 85.8996 1698.25 85.0635 1699.28 85.0635Z" fill="white" fill-opacity="0.3"/>
<path d="M1666.43 68.628C1667.46 68.628 1668.29 69.4642 1668.29 70.4956C1668.29 71.5271 1667.46 72.3633 1666.43 72.3633C1665.4 72.3633 1664.56 71.5271 1664.56 70.4956C1664.56 69.4642 1665.4 68.628 1666.43 68.628Z" fill="white" fill-opacity="0.3"/>
<path d="M1682.86 68.6283C1683.89 68.6283 1684.72 69.4645 1684.72 70.4959C1684.72 71.5274 1683.89 72.3636 1682.86 72.3636C1681.82 72.3636 1680.99 71.5274 1680.99 70.4959C1680.99 69.4645 1681.82 68.6283 1682.86 68.6283Z" fill="white" fill-opacity="0.3"/>
<path d="M1699.28 68.6283C1700.31 68.6283 1701.15 69.4645 1701.15 70.4959C1701.15 71.5274 1700.31 72.3636 1699.28 72.3636C1698.25 72.3636 1697.42 71.5274 1697.42 70.4959C1697.42 69.4645 1698.25 68.6283 1699.28 68.6283Z" fill="white" fill-opacity="0.3"/>
<path d="M1666.43 101.125C1667.46 101.125 1668.29 101.961 1668.29 102.993C1668.29 104.024 1667.46 104.86 1666.43 104.86C1665.4 104.86 1664.56 104.024 1664.56 102.993C1664.56 101.961 1665.4 101.125 1666.43 101.125Z" fill="white" fill-opacity="0.3"/>
<path d="M1666.43 52.1928C1667.46 52.1928 1668.29 53.029 1668.29 54.0604C1668.29 55.0919 1667.46 55.9281 1666.43 55.9281C1665.4 55.9281 1664.56 55.0919 1664.56 54.0604C1664.56 53.029 1665.4 52.1928 1666.43 52.1928Z" fill="white" fill-opacity="0.3"/>
<path d="M1682.86 101.125C1683.89 101.125 1684.72 101.961 1684.72 102.993C1684.72 104.024 1683.89 104.86 1682.86 104.86C1681.82 104.86 1680.99 104.024 1680.99 102.993C1680.99 101.961 1681.82 101.125 1682.86 101.125Z" fill="white" fill-opacity="0.3"/>
<path d="M1682.86 52.1928C1683.89 52.1928 1684.72 53.029 1684.72 54.0604C1684.72 55.0919 1683.89 55.9281 1682.86 55.9281C1681.82 55.9281 1680.99 55.0919 1680.99 54.0604C1680.99 53.029 1681.82 52.1928 1682.86 52.1928Z" fill="white" fill-opacity="0.3"/>
<path d="M1699.28 101.125C1700.31 101.125 1701.15 101.961 1701.15 102.993C1701.15 104.024 1700.31 104.86 1699.28 104.86C1698.25 104.86 1697.42 104.024 1697.42 102.993C1697.42 101.961 1698.25 101.125 1699.28 101.125Z" fill="white" fill-opacity="0.3"/>
<path d="M1699.28 52.1928C1700.31 52.1928 1701.15 53.029 1701.15 54.0604C1701.15 55.0919 1700.31 55.9281 1699.28 55.9281C1698.25 55.9281 1697.42 55.0919 1697.42 54.0604C1697.42 53.029 1698.25 52.1928 1699.28 52.1928Z" fill="white" fill-opacity="0.3"/>
</g>
<defs>
<linearGradient id="paint0_linear_727_384" x1="32.2033" y1="-287.165" x2="32.2033" y2="301.573" gradientUnits="userSpaceOnUse">
<stop stop-color="#13C296" stop-opacity="0.4"/>
<stop offset="1" stop-opacity="0"/>
</linearGradient>
<linearGradient id="paint1_linear_727_384" x1="1969.75" y1="26.7282" x2="1969.75" y2="424.762" gradientUnits="userSpaceOnUse">
<stop stop-color="#7F56A1" stop-opacity="0.22"/>
<stop offset="1" stop-opacity="0"/>
</linearGradient>
</defs>
</svg>
