<svg width="262" height="468" viewBox="0 0 262 468" fill="none" xmlns="http://www.w3.org/2000/svg">
<ellipse cx="321.745" cy="223.745" rx="199.017" ry="199.017" transform="rotate(-75 321.745 223.745)" fill="url(#paint0_linear_728_385)"/>
<path d="M2.4585 34.0556C3.48945 34.0556 4.3252 34.8917 4.3252 35.9232C4.3252 36.9547 3.48945 37.7908 2.4585 37.7908C1.42754 37.7908 0.591797 36.9547 0.591797 35.9232C0.591797 34.8917 1.42754 34.0556 2.4585 34.0556Z" fill="white" fill-opacity="0.3"/>
<path d="M2.4585 17.6211C3.48945 17.6211 4.3252 18.4572 4.3252 19.4887C4.3252 20.5202 3.48945 21.3563 2.4585 21.3563C1.42754 21.3563 0.591797 20.5202 0.591797 19.4887C0.591797 18.4572 1.42754 17.6211 2.4585 17.6211Z" fill="white" fill-opacity="0.3"/>
<path d="M2.4585 1.1859C3.48945 1.1859 4.3252 2.02206 4.3252 3.05353C4.3252 4.08499 3.48945 4.92116 2.4585 4.92116C1.42754 4.92116 0.591797 4.08499 0.591797 3.05353C0.591797 2.02206 1.42754 1.1859 2.4585 1.1859Z" fill="white" fill-opacity="0.3"/>
<path d="M18.4281 34.0562C19.4591 34.0562 20.2948 34.8924 20.2948 35.9239C20.2948 36.9553 19.4591 37.7915 18.4281 37.7915C17.3971 37.7915 16.5614 36.9553 16.5614 35.9239C16.5614 34.8924 17.3971 34.0562 18.4281 34.0562Z" fill="white" fill-opacity="0.3"/>
<path d="M34.8551 34.0562C35.8861 34.0562 36.7218 34.8924 36.7218 35.9239C36.7218 36.9553 35.8861 37.7915 34.8551 37.7915C33.8241 37.7915 32.9884 36.9553 32.9884 35.9239C32.9884 34.8924 33.8241 34.0562 34.8551 34.0562Z" fill="white" fill-opacity="0.3"/>
<path d="M51.282 34.0562C52.3129 34.0562 53.1487 34.8924 53.1487 35.9239C53.1487 36.9553 52.3129 37.7915 51.282 37.7915C50.251 37.7915 49.4153 36.9553 49.4153 35.9239C49.4153 34.8924 50.251 34.0562 51.282 34.0562Z" fill="white" fill-opacity="0.3"/>
<path d="M18.4281 17.6211C19.4591 17.6211 20.2948 18.4572 20.2948 19.4887C20.2948 20.5202 19.4591 21.3563 18.4281 21.3563C17.3971 21.3563 16.5614 20.5202 16.5614 19.4887C16.5614 18.4572 17.3971 17.6211 18.4281 17.6211Z" fill="white" fill-opacity="0.3"/>
<path d="M34.8551 17.6211C35.8861 17.6211 36.7218 18.4572 36.7218 19.4887C36.7218 20.5202 35.8861 21.3563 34.8551 21.3563C33.8241 21.3563 32.9884 20.5202 32.9884 19.4887C32.9884 18.4572 33.8241 17.6211 34.8551 17.6211Z" fill="white" fill-opacity="0.3"/>
<path d="M51.282 17.6211C52.3129 17.6211 53.1487 18.4572 53.1487 19.4887C53.1487 20.5202 52.3129 21.3563 51.282 21.3563C50.251 21.3563 49.4153 20.5202 49.4153 19.4887C49.4153 18.4572 50.251 17.6211 51.282 17.6211Z" fill="white" fill-opacity="0.3"/>
<path d="M18.4281 1.18556C19.4591 1.18556 20.2948 2.02174 20.2948 3.05321C20.2948 4.08467 19.4591 4.92084 18.4281 4.92084C17.3971 4.92084 16.5614 4.08467 16.5614 3.05321C16.5614 2.02174 17.3971 1.18556 18.4281 1.18556Z" fill="white" fill-opacity="0.3"/>
<path d="M34.8551 1.18555C35.8861 1.18555 36.7218 2.02174 36.7218 3.05321C36.7218 4.08467 35.8861 4.92084 34.8551 4.92084C33.8241 4.92084 32.9884 4.08467 32.9884 3.05321C32.9884 2.02174 33.8241 1.18555 34.8551 1.18555Z" fill="white" fill-opacity="0.3"/>
<path d="M51.282 1.18555C52.3129 1.18555 53.1487 2.02174 53.1487 3.05321C53.1487 4.08467 52.3129 4.92084 51.282 4.92084C50.251 4.92084 49.4153 4.08467 49.4153 3.05321C49.4153 2.02174 50.251 1.18555 51.282 1.18555Z" fill="white" fill-opacity="0.3"/>
<path d="M2.4585 83.0632C3.48945 83.0632 4.3252 83.8993 4.3252 84.9308C4.3252 85.9623 3.48945 86.7984 2.4585 86.7984C1.42754 86.7984 0.591797 85.9623 0.591797 84.9308C0.591797 83.8993 1.42754 83.0632 2.4585 83.0632Z" fill="white" fill-opacity="0.3"/>
<path d="M2.4585 66.628C3.48945 66.628 4.3252 67.4642 4.3252 68.4956C4.3252 69.5271 3.48945 70.3633 2.4585 70.3633C1.42754 70.3633 0.591797 69.5271 0.591797 68.4956C0.591797 67.4642 1.42754 66.628 2.4585 66.628Z" fill="white" fill-opacity="0.3"/>
<path d="M2.4585 99.1253C3.48945 99.1253 4.3252 99.9614 4.3252 100.993C4.3252 102.024 3.48945 102.861 2.4585 102.861C1.42754 102.861 0.591797 102.024 0.591797 100.993C0.591797 99.9614 1.42754 99.1253 2.4585 99.1253Z" fill="white" fill-opacity="0.3"/>
<path d="M2.4585 50.1931C3.48945 50.1931 4.3252 51.0293 4.3252 52.0608C4.3252 53.0923 3.48945 53.9284 2.4585 53.9284C1.42754 53.9284 0.591797 53.0923 0.591797 52.0608C0.591797 51.0293 1.42754 50.1931 2.4585 50.1931Z" fill="white" fill-opacity="0.3"/>
<path d="M18.4281 83.0635C19.4591 83.0635 20.2948 83.8997 20.2948 84.9311C20.2948 85.9626 19.4591 86.7988 18.4281 86.7988C17.3971 86.7988 16.5614 85.9626 16.5614 84.9311C16.5614 83.8997 17.3971 83.0635 18.4281 83.0635Z" fill="white" fill-opacity="0.3"/>
<path d="M34.8551 83.0635C35.8861 83.0635 36.7218 83.8997 36.7218 84.9311C36.7218 85.9626 35.8861 86.7988 34.8551 86.7988C33.8241 86.7988 32.9884 85.9626 32.9884 84.9311C32.9884 83.8997 33.8241 83.0635 34.8551 83.0635Z" fill="white" fill-opacity="0.3"/>
<path d="M51.282 83.0635C52.3129 83.0635 53.1487 83.8996 53.1487 84.9311C53.1487 85.9626 52.3129 86.7988 51.282 86.7988C50.251 86.7988 49.4153 85.9626 49.4153 84.9311C49.4153 83.8996 50.251 83.0635 51.282 83.0635Z" fill="white" fill-opacity="0.3"/>
<path d="M18.4281 66.628C19.4591 66.628 20.2948 67.4642 20.2948 68.4956C20.2948 69.5271 19.4591 70.3633 18.4281 70.3633C17.3971 70.3633 16.5614 69.5271 16.5614 68.4956C16.5614 67.4642 17.3971 66.628 18.4281 66.628Z" fill="white" fill-opacity="0.3"/>
<path d="M34.8551 66.6283C35.8861 66.6283 36.7218 67.4645 36.7218 68.4959C36.7218 69.5274 35.8861 70.3636 34.8551 70.3636C33.8241 70.3636 32.9884 69.5274 32.9884 68.4959C32.9884 67.4645 33.8241 66.6283 34.8551 66.6283Z" fill="white" fill-opacity="0.3"/>
<path d="M51.282 66.6283C52.3129 66.6283 53.1487 67.4645 53.1487 68.4959C53.1487 69.5274 52.3129 70.3636 51.282 70.3636C50.251 70.3636 49.4153 69.5274 49.4153 68.4959C49.4153 67.4645 50.251 66.6283 51.282 66.6283Z" fill="white" fill-opacity="0.3"/>
<path d="M18.4281 99.125C19.4591 99.125 20.2948 99.9611 20.2948 100.993C20.2948 102.024 19.4591 102.86 18.4281 102.86C17.3971 102.86 16.5614 102.024 16.5614 100.993C16.5614 99.9611 17.3971 99.125 18.4281 99.125Z" fill="white" fill-opacity="0.3"/>
<path d="M18.4281 50.1928C19.4591 50.1928 20.2948 51.029 20.2948 52.0604C20.2948 53.0919 19.4591 53.9281 18.4281 53.9281C17.3971 53.9281 16.5614 53.0919 16.5614 52.0604C16.5614 51.029 17.3971 50.1928 18.4281 50.1928Z" fill="white" fill-opacity="0.3"/>
<path d="M34.8551 99.125C35.8861 99.125 36.7218 99.9611 36.7218 100.993C36.7218 102.024 35.8861 102.86 34.8551 102.86C33.8241 102.86 32.9884 102.024 32.9884 100.993C32.9884 99.9611 33.8241 99.125 34.8551 99.125Z" fill="white" fill-opacity="0.3"/>
<path d="M34.8551 50.1928C35.8861 50.1928 36.7218 51.029 36.7218 52.0604C36.7218 53.0919 35.8861 53.9281 34.8551 53.9281C33.8241 53.9281 32.9884 53.0919 32.9884 52.0604C32.9884 51.029 33.8241 50.1928 34.8551 50.1928Z" fill="white" fill-opacity="0.3"/>
<path d="M51.282 99.125C52.3129 99.125 53.1487 99.9611 53.1487 100.993C53.1487 102.024 52.3129 102.86 51.282 102.86C50.251 102.86 49.4153 102.024 49.4153 100.993C49.4153 99.9611 50.251 99.125 51.282 99.125Z" fill="white" fill-opacity="0.3"/>
<path d="M51.282 50.1928C52.3129 50.1928 53.1487 51.029 53.1487 52.0604C53.1487 53.0919 52.3129 53.9281 51.282 53.9281C50.251 53.9281 49.4153 53.0919 49.4153 52.0604C49.4153 51.029 50.251 50.1928 51.282 50.1928Z" fill="white" fill-opacity="0.3"/>
<defs>
<linearGradient id="paint0_linear_728_385" x1="321.745" y1="24.7282" x2="321.745" y2="422.762" gradientUnits="userSpaceOnUse">
<stop stop-color="#7F56A1" stop-opacity="0.22"/>
<stop offset="1" stop-opacity="0"/>
</linearGradient>
</defs>
</svg>
