<svg width="110" height="19" viewBox="0 0 110 19" fill="none" xmlns="http://www.w3.org/2000/svg">
<path d="M10.31 0.0136719L12.5386 6.347H19.7505L13.916 10.2612L16.1446 16.5945L10.31 12.6803L4.47554 16.5945L6.70412 10.2612L0.869615 6.347H8.08146L10.31 0.0136719Z" fill="#FBB040"/>
<path d="M32.6435 0.0136719L34.8721 6.347H42.084L36.2495 10.2612L38.478 16.5945L32.6435 12.6803L26.809 16.5945L29.0376 10.2612L23.2031 6.347H30.415L32.6435 0.0136719Z" fill="#FBB040"/>
<path d="M54.979 0.0136719L57.2076 6.347H64.4194L58.5849 10.2612L60.8135 16.5945L54.979 12.6803L49.1445 16.5945L51.3731 10.2612L45.5386 6.347H52.7504L54.979 0.0136719Z" fill="#FBB040"/>
<path d="M77.3096 0.0136719L79.5381 6.347H86.75L80.9155 10.2612L83.1441 16.5945L77.3096 12.6803L71.475 16.5945L73.7036 10.2612L67.8691 6.347H75.081L77.3096 0.0136719Z" fill="#FBB040"/>
<path d="M99.645 0.0136719L101.874 6.347H109.085L103.251 10.2612L105.48 16.5945L99.645 12.6803L93.8105 16.5945L96.0391 10.2612L90.2046 6.347H97.4164L99.645 0.0136719Z" fill="#D8D8D8"/>
<path d="M99.6445 0.0136719V6.347V12.6803V8.66539V7.38538V10.0555V12.6803L93.81 16.5945L96.0386 10.2612L90.2041 6.347H97.4159L99.6445 0.0136719Z" fill="#FBB040"/>
</svg>
